<svg width="32" height="23" viewBox="0 0 32 23" fill="none" xmlns="http://www.w3.org/2000/svg">
<g clip-path="url(#clip0_9_1268)">
<path d="M29.0508 1.62109H2.79031C1.77512 1.62109 0.952148 2.45055 0.952148 3.47373V19.0585C0.952148 20.0817 1.77512 20.9111 2.79031 20.9111H29.0508C30.066 20.9111 30.8889 20.0817 30.8889 19.0585V3.47373C30.8889 2.45055 30.066 1.62109 29.0508 1.62109Z" fill="url(#paint0_linear_9_1268)"/>
<path fill-rule="evenodd" clip-rule="evenodd" d="M8.93654 11.0827L9.06984 10.5524C9.582 10.3968 10.6274 10.3261 10.8238 10.8847C10.9361 11.21 10.6133 12.5606 10.5502 12.9565L10.0521 12.9636C9.93981 12.8222 10.031 13.0838 9.95384 12.7373C9.47676 13.1687 8.45946 13.098 8.53663 12.2282C8.61381 11.3655 9.35749 11.4787 10.1643 11.3514C10.1503 10.7998 9.46273 10.9483 8.92952 11.0756L8.93654 11.0827ZM12.69 10.9978C12.234 10.9978 12.1638 10.8988 11.7639 11.0756C11.8131 11.5777 12.0726 11.3797 12.4305 11.6201C13.111 12.0726 12.3813 13.4727 10.7607 12.8717L10.8519 12.3626C11.3079 12.4545 11.5394 12.5464 11.8902 12.3484C11.9744 11.6342 10.7186 12.1009 11.0694 10.9554C11.2588 10.3331 12.0937 10.418 12.7812 10.4816L12.683 10.9978H12.69ZM5.70221 9.91595L6.77565 9.9513L6.8879 11.6484L7.47022 10.2907C7.66666 9.80281 7.53336 9.90888 8.76816 9.92302L8.2139 12.9565L7.61054 12.9495L7.94028 10.7716L7.04927 12.9636L6.32663 12.9424C6.30558 12.5181 6.2705 11.0261 6.15825 10.7433L5.79342 12.9495L5.16199 12.9424L5.70221 9.91595ZM15.9384 16.3577L16.2331 16.0042C15.6437 15.9264 15.5385 16.0961 15.2719 15.6153L16.626 15.6011C16.7101 15.4597 16.8505 15.3254 16.9206 15.1627C15.3771 15.0567 14.9421 15.4526 14.6966 14.7738H17.1732L17.4468 14.3425L14.3879 14.3283L14.2476 13.9677L17.545 13.9536C17.7345 13.8475 17.7345 13.7273 17.7836 13.5081L14.6615 13.501C14.1002 13.5081 14.0652 13.6354 13.9599 13.1192H17.8888L18.0151 12.6808L16.8645 12.6666L16.8084 12.9636L16.1489 12.9353L16.5628 10.4675L17.1872 10.5524C17.1872 10.5665 17.2013 10.616 17.2013 10.6372C17.2013 10.6513 17.2083 10.6726 17.2083 10.6796L17.2434 10.8069C17.4187 10.5948 17.531 10.4392 17.9379 10.4534L17.7274 11.0261C17.6082 11.1817 17.2574 11.0049 17.11 11.4292L17.7976 11.4575C17.8748 11.012 17.959 10.8776 18.0853 10.517L18.0923 10.3049L13.7915 10.3119L13.7775 10.4675C14.009 10.4675 14.002 10.4251 14.1353 10.5382L14.0722 10.9554C13.6372 11.0615 13.6512 10.7998 13.6091 11.3726C13.6723 11.4787 13.5951 11.4221 13.7284 11.4575L14.002 11.4645C14.444 10.0149 15.763 10.3331 16.0647 10.7857C16.226 11.0261 16.3874 11.8181 15.9875 11.8817L14.6475 11.8959C14.7106 12.61 15.5245 12.4616 16.0506 12.2848C16.0296 12.5818 16.0506 12.8222 15.777 12.9212C15.5595 12.999 15.1035 12.9777 14.865 12.9212C14.2756 12.7868 14.0231 12.4898 13.981 11.8464L13.7284 11.8393C13.4969 11.7332 13.6793 11.8393 13.56 11.5494C13.4618 12.1434 13.1952 12.5252 13.9248 12.4403C13.8827 12.7939 13.9319 12.9141 13.546 12.9565C12.4234 13.0909 12.7883 12.3343 12.9707 11.3231C13.2583 9.71089 13.0338 9.90888 13.8477 9.92302L18.0291 9.93009L17.9449 9.49168L13.9038 9.47754L13.981 9.12398L17.8046 9.10277C17.7064 8.50172 17.6854 8.65022 16.2962 8.65022H14.1774C14.3247 8.13402 14.2476 8.27545 15.6227 8.27545H17.4819L17.2854 7.82996L14.5913 7.82289L14.7738 7.45519L17.0259 7.44105C16.7382 6.84708 16.7522 7.01678 15.1596 6.9885C15.3631 6.47938 15.7209 6.60666 16.3453 6.60666C16.1699 6.32381 16.0436 6.34503 15.9384 6.10461C15.6788 5.97026 15.4473 5.72984 15.1877 5.54599C13.2022 4.13176 10.5081 3.98327 8.3472 5.04394C6.4038 5.99147 4.49548 8.18352 4.51653 11.217C4.54459 15.5516 8.31914 18.7124 12.5918 17.977C14.5984 17.6306 15.1035 16.8103 15.9314 16.3507L15.9384 16.3577Z" fill="#E41D2C"/>
<path fill-rule="evenodd" clip-rule="evenodd" d="M20.5196 10.5306C22.6945 10.0852 22.3367 11.167 22.1613 12.0439C22.1052 12.3055 22.1052 12.8217 21.9017 12.9631C21.8526 12.9631 21.5649 12.9702 21.5369 12.956C21.3404 12.8783 21.4316 13.1116 21.4036 12.751C20.8142 13.0904 19.8811 13.1682 19.9934 12.2206C20.0846 11.464 20.8423 11.3438 21.614 11.3792C21.586 10.8206 21.0808 10.9125 20.3792 11.0893L20.5266 10.5306H20.5196ZM22.6664 10.467L23.2487 10.4741C23.2558 10.4882 23.2628 10.5094 23.2628 10.5236L23.354 10.7852C23.4592 10.6226 23.6557 10.4811 23.9644 10.4741L23.8802 10.9761L23.5925 11.0893C23.0172 11.2802 23.0523 12.0085 22.8979 12.9631H22.2455L22.6664 10.467ZM25.7604 9.9296H26.3568L25.8446 12.9702C25.1781 12.9773 25.3395 13.0126 25.129 12.7581C24.694 13.4086 23.3891 12.8075 23.789 11.464C24.0836 10.4599 25.0799 10.1912 25.571 10.7852L25.7674 9.92253L25.7604 9.9296ZM15.9452 6.11119C16.0504 6.35161 16.1837 6.33039 16.3521 6.61324C15.7277 6.61324 15.3699 6.47889 15.1664 6.99508C16.759 7.02336 16.745 6.85366 17.0327 7.44763L14.7806 7.46177L14.5982 7.82947L17.2923 7.83654L17.4887 8.28202H15.6295C14.2614 8.28202 14.3315 8.14767 14.1842 8.65679H16.303C17.6922 8.65679 17.7132 8.5083 17.8114 9.10935L13.9878 9.13056L13.9106 9.48412L17.9517 9.49826L18.0359 9.93667L13.8545 9.9296L13.7983 10.3256L18.0991 10.3185L18.0921 10.5306C18.4148 10.2195 18.3587 10.0569 18.962 9.8801C19.4602 9.73868 19.7759 9.84475 20.267 9.95081L20.1618 10.6014C19.3198 10.3468 18.7726 10.4104 18.5762 11.2873C18.3587 12.2277 19.0953 12.5813 19.8741 12.2065C19.8039 12.8924 19.6917 13.0621 18.8919 12.956C18.3376 12.8853 18.1692 12.6166 17.9237 12.2843H16.9204L16.8643 12.6732L18.0149 12.6873L17.8886 13.1258H13.9597C14.0649 13.6419 14.1 13.5147 14.6613 13.5076L17.7834 13.5147C17.7272 13.7268 17.7343 13.8541 17.5448 13.9601L14.2474 13.9743L14.3877 14.3349L17.4466 14.3491L17.173 14.7804H14.6964C14.9419 15.4522 15.3769 15.0632 16.9204 15.1693C16.8503 15.3319 16.7099 15.4663 16.6257 15.6077L15.2717 15.6219C15.5313 16.0956 15.6435 15.933 16.2329 16.0108L15.9382 16.3643C16.9415 17.1068 17.7202 17.7291 19.3409 18.0119C20.8142 18.2665 22.3507 17.9836 23.5364 17.3967C28.672 14.844 28.5317 7.49006 23.4943 5.05759C21.6842 4.18784 19.2848 4.11006 17.4115 5.10001C16.5065 5.57378 16.289 5.91319 15.9522 6.11826L15.9452 6.11119Z" fill="#F8B02B"/>
<path fill-rule="evenodd" clip-rule="evenodd" d="M5.16138 12.9489L5.79281 12.956L6.15763 10.7498C6.26989 11.0326 6.30497 12.5247 6.32601 12.9489L7.04865 12.9701L7.93967 10.7781L7.60992 12.956L8.21329 12.9631L8.76754 9.92955C7.53275 9.91541 7.66605 9.80934 7.4696 10.2972L6.88729 11.6549L6.77503 9.95783L5.7016 9.92248L5.16138 12.9489ZM24.7076 12.3903C24.1814 11.8458 24.6305 10.9407 25.1216 11.0609C25.6057 11.1811 25.5145 12.3762 24.7076 12.3903ZM25.5636 10.7852C25.0725 10.1912 24.0832 10.4599 23.7815 11.464C23.3816 12.8004 24.6866 13.4085 25.1216 12.758C25.3321 13.0126 25.1707 12.9701 25.8372 12.9701L26.3494 9.92955H25.753L25.5566 10.7922L25.5636 10.7852ZM20.7437 12.3974C20.6454 11.9236 21.0804 11.7398 21.4944 11.8246C21.5154 12.3054 21.1786 12.5671 20.7437 12.3974ZM20.5192 10.5377L20.3718 11.0963C21.0734 10.9266 21.5856 10.8347 21.6066 11.3862C20.8349 11.3508 20.0772 11.4711 19.9859 12.2277C19.8667 13.1752 20.8068 13.0974 21.3961 12.758C21.4242 13.1186 21.333 12.8853 21.5294 12.9631C21.5575 12.9772 21.8452 12.9701 21.8943 12.9701C22.1047 12.8358 22.1047 12.3125 22.1539 12.0509C22.3363 11.167 22.6871 10.0922 20.5121 10.5377H20.5192ZM10.0515 11.8034C10.0655 12.0438 10.0234 12.2277 9.86904 12.3479C9.7638 12.4257 9.44808 12.5176 9.3218 12.3974C8.92891 12.0367 9.66558 11.7963 10.0444 11.8034H10.0515ZM8.93592 11.0821C9.46913 10.9549 10.1567 10.8064 10.1707 11.3579C9.36389 11.4852 8.62021 11.3721 8.54304 12.2347C8.45884 13.1045 9.47615 13.1752 9.96024 12.7439C10.0374 13.0903 9.94621 12.8287 10.0585 12.9701L10.5566 12.9631C10.6197 12.56 10.9425 11.2165 10.8302 10.8912C10.6338 10.3255 9.59542 10.3962 9.07624 10.5589L8.94294 11.0892L8.93592 11.0821ZM14.7521 11.4357C14.8433 11.0751 14.9977 10.9266 15.4116 10.9831C15.5589 11.1953 15.5589 11.1316 15.587 11.4357H14.7521ZM14.0084 11.4711L13.9803 11.8529C14.0224 12.4964 14.282 12.7863 14.8644 12.9277C15.1029 12.9843 15.5589 13.0055 15.7764 12.9277C16.05 12.8358 16.029 12.5883 16.05 12.2913C15.5238 12.4681 14.71 12.6166 14.6469 11.9024L15.9869 11.8883C16.3868 11.8246 16.2254 11.0397 16.0641 10.7922C15.7624 10.3397 14.4434 10.0215 14.0014 11.4711H14.0084ZM18.0917 10.5306C17.9654 10.8912 17.8812 11.0256 17.804 11.4711V11.86L17.9233 12.2913C18.1688 12.6236 18.3372 12.8924 18.8915 12.9631C19.6913 13.0691 19.8035 12.8994 19.8737 12.2135C19.0879 12.5883 18.3583 12.2347 18.5758 11.2943C18.7792 10.4104 19.3265 10.3538 20.1613 10.6084L20.2666 9.95783C19.7755 9.85884 19.4598 9.75277 18.9616 9.88712C18.3583 10.0568 18.4144 10.2265 18.0917 10.5377V10.5306ZM12.7806 10.4811C12.0931 10.4245 11.2582 10.3326 11.0688 10.9549C10.718 12.1004 11.9668 11.6337 11.8896 12.3479C11.5318 12.5459 11.3073 12.4539 10.8513 12.362L10.7601 12.8711C12.3807 13.4722 13.1034 12.0792 12.4298 11.6195C12.072 11.3791 11.8124 11.5842 11.7633 11.0751C12.1632 10.8912 12.2264 10.9973 12.6894 10.9973L12.7876 10.4811H12.7806Z" fill="#FEFEFE"/>
<path fill-rule="evenodd" clip-rule="evenodd" d="M13.5663 11.5557L13.6154 11.386C13.6575 10.8132 13.6435 11.0749 14.0785 10.9688L14.1416 10.5516C14.0083 10.4385 14.0153 10.4809 13.7838 10.4809L13.7978 10.3253L13.854 9.92935C13.0401 9.91521 13.2646 9.71722 12.977 11.3294C12.7946 12.3406 12.4297 13.0972 13.5523 12.9629C13.9311 12.9204 13.889 12.8002 13.9311 12.4467C13.2085 12.5315 13.4751 12.1497 13.5663 11.5557ZM16.8638 12.68L16.9199 12.2911L16.9901 11.8668L17.1164 11.4426C17.2707 11.0183 17.6215 11.1951 17.7338 11.0395L17.9442 10.4668C17.5303 10.4526 17.418 10.6082 17.2497 10.8203L17.2146 10.693C17.2146 10.686 17.2076 10.6648 17.2076 10.6506C17.2076 10.6365 17.1935 10.5799 17.1935 10.5658L16.5691 10.4809L16.1552 12.9487L16.8147 12.977L16.8708 12.68H16.8638ZM22.245 12.9629H22.8974C23.0518 12.0083 23.0167 11.2799 23.592 11.089L23.8797 10.9759L23.9639 10.4738C23.6552 10.4809 23.4587 10.6223 23.3535 10.785L23.2623 10.5233C23.2553 10.5092 23.2553 10.488 23.2482 10.4738L22.6659 10.4668L22.245 12.9629Z" fill="#FEFEFE"/>
<path fill-rule="evenodd" clip-rule="evenodd" d="M24.7078 12.3908C25.5217 12.3766 25.6129 11.1816 25.1218 11.0614C24.6236 10.9412 24.1816 11.8463 24.7078 12.3908Z" fill="#F8B02B"/>
<path fill-rule="evenodd" clip-rule="evenodd" d="M10.052 11.8039C9.67315 11.7968 8.93648 12.0372 9.32937 12.3978C9.45566 12.511 9.77137 12.4191 9.87661 12.3483C10.031 12.2352 10.066 12.0443 10.059 11.8039H10.052ZM16.9206 12.2847L17.9238 12.2918L17.8046 11.8604H16.9907L16.9206 12.2847Z" fill="#E41D2C"/>
<path fill-rule="evenodd" clip-rule="evenodd" d="M20.7442 12.3977C21.1862 12.5603 21.516 12.3058 21.4949 11.8249C21.074 11.7472 20.646 11.931 20.7442 12.3977ZM16.9907 11.8603H17.8046V11.4714L17.117 11.436L16.9907 11.8603Z" fill="#F8B02B"/>
<path fill-rule="evenodd" clip-rule="evenodd" d="M14.752 11.4359H15.5868C15.5658 11.1389 15.5588 11.1955 15.4114 10.9834C14.9975 10.9268 14.8432 11.0753 14.752 11.4359Z" fill="#E41D2C"/>
<path fill-rule="evenodd" clip-rule="evenodd" d="M13.5671 11.5564C13.6864 11.8463 13.504 11.7403 13.7355 11.8463L13.9881 11.8534L14.0162 11.4716L13.7425 11.4645C13.6022 11.4362 13.6794 11.4857 13.6233 11.3796L13.5742 11.5493L13.5671 11.5564Z" fill="#F8B02B"/>
</g>
<defs>
<linearGradient id="paint0_linear_9_1268" x1="15.9203" y1="1.62378" x2="15.9203" y2="20.9153" gradientUnits="userSpaceOnUse">
<stop stop-color="#1D4C80"/>
<stop offset="1" stop-color="#173A63"/>
</linearGradient>
<clipPath id="clip0_9_1268">
<rect width="30.4139" height="22.8104" fill="white" transform="translate(0.713867 0.0334473)"/>
</clipPath>
</defs>
</svg>
